<?xml version="1.0" standalone="no"?>
<!DOCTYPE svg PUBLIC "-//W3C//DTD SVG 20010904//EN"
 "http://www.w3.org/TR/2001/REC-SVG-20010904/DTD/svg10.dtd">
<svg version="1.0" xmlns="http://www.w3.org/2000/svg"
 width="32.000000pt" height="32.000000pt" viewBox="0 0 32.000000 32.000000"
 preserveAspectRatio="xMidYMid meet">

<g transform="translate(0.000000,32.000000) scale(0.100000,-0.100000)"
fill="#000000" stroke="none">
<path d="M32 231 l-31 -50 79 -71 80 -72 79 72 80 72 -28 46 -27 47 -101 3
-101 3 -30 -50z m206 7 c-3 -7 -18 -15 -34 -17 l-29 -3 35 -12 c47 -15 48 -46
3 -60 -22 -6 -33 -15 -33 -27 0 -12 -7 -19 -20 -19 -13 0 -20 7 -20 19 0 12
-11 21 -32 27 -46 14 -45 45 2 60 l35 12 -29 3 c-16 2 -31 10 -34 17 -3 9 17
12 78 12 61 0 81 -3 78 -12z"/>
<path d="M103 173 c9 -2 23 -2 30 0 6 3 -1 5 -18 5 -16 0 -22 -2 -12 -5z"/>
<path d="M193 173 c9 -2 23 -2 30 0 6 3 -1 5 -18 5 -16 0 -22 -2 -12 -5z"/>
</g>
</svg>
